_________________________  Visit us at _________________________
  
http://p2pdl.com  ____________________________  http://p2pdl.com


Dead Mine 2012 BRRip 480p x264 AAC - VYTO


Genre: Action | Horror
Plot: The legend of Yamashita's Gold lures a treasure hunter and his group deep into the Indonesian
jungle. Once they are trapped in an abandoned World War II Japanese bunker, they face the terrifying
reality that the only way out is to go further in. 
Director: Steven Sheil
Stars: Ario Bayu, Afwan, Andre.
Rated: N/a


Info: 
http://www.imdb.com/title/tt2171847/

Trailer:


Format                         : MPEG-4
File size                      : 301 MiB
Duration                       : 1h 31mn
Overall bit rate               : 461 Kbps
Source                         : 720p.BluRay.x264-ROVERS 

Video
Format                         : AVC
Duration                       : 1h 31mn
Bit rate                       : 417 Kbps
Width                          : 720 pixels
Height                         : 304 pixels
Display aspect ratio           : 2.35:1
Frame rate mode                : Constant
Frame rate                     : 23.976 fps
Stream size                    : 273 MiB (90%)
Writing library                : x264 core 130 r2273

Audio
Format                         : AAC
Bit rate mode                  : Variable
Bit rate                       : 40.0 Kbps
Channel(s)                     : 2 channels
Channel positions              : Front: L R
Sampling rate                  : 44.1 KHz
Stream size                    : 26.2 MiB (9%)

Subtitle                       : Yes(English)

 
http://www.ultraimg.com/images/fLmT.png 
http://www.ultraimg.com/images/3Z5fI.png 
http://www.ultraimg.com/images/DPtwK.png 
http://www.ultraimg.com/images/F1joE.png 
http://www.ultraimg.com/images/Zhme2.png 
http://www.ultraimg.com/images/wQKj9.png

----------------------------------------------------------------------------------------------------


Encoded using revolutionary 10bit encoding, which enables us to provide you more crispier 
and sharper images at small sizes, just make sure you follow our instructions without a fault.
Recommend to you to use latest version of VLC player. Install K-Lite Codec Pack or shark007 codecs
in case of any kind of problem in playback (For non-VLC Media Player users). Alternatively, install
Core AVC codecs, the fastest decoder that there is coupled with Community Center Codec Pack and play
on Windows Media Player Classic. Check sample to be sure.
Enjoy!

Encoder Notes:Looking For Early Access To Anything You Can Provide DVDScr, R5, DVDR, BluRay, Direct
Audio, Music Releases and Seedboxes. We require dedicated servers, so as to do more 
and fast releases of movies.
If You Got anything to offer please contact us at "prg@hush.com".

Face book Fan Page:   
http://www.fb.me/p2pdl